<?xml version="1.0" encoding="UTF-8" standalone="no"?>
<!DOCTYPE svg PUBLIC "-//W3C//DTD SVG 1.1//EN" "http://www.w3.org/Graphics/SVG/1.1/DTD/svg11.dtd">
<svg width="100%" height="100%" viewBox="0 0 256 256" version="1.1" xmlns="http://www.w3.org/2000/svg" xmlns:xlink="http://www.w3.org/1999/xlink" xml:space="preserve" xmlns:serif="http://www.serif.com/" style="fill-rule:evenodd;clip-rule:evenodd;stroke-linejoin:round;stroke-miterlimit:2;">
    <g id="YarnScript-Icon" serif:id="YarnScript Icon" transform="matrix(2.37037,0,0,5.01961,1104.59,-446.745)">
        <rect x="-466" y="89" width="108" height="51" style="fill:none;"/>
        <g transform="matrix(0.421875,0,0,0.199219,-618.297,89)">
            <path d="M601,61.801L601,221.705C601,238.413 587.455,251.958 570.747,251.958L407.253,251.958C399.229,251.958 391.534,248.77 385.861,243.097C380.187,237.423 377,229.728 377,221.705L377,34.253C377,26.229 380.187,18.534 385.861,12.861C391.534,7.187 399.229,4 407.253,4L543.199,4L601,61.801Z" style="fill:white;"/>
            <path d="M601,61.801L601,221.705C601,238.413 587.455,251.958 570.747,251.958L407.253,251.958C399.229,251.958 391.534,248.77 385.861,243.097C380.187,237.423 377,229.728 377,221.705L377,34.253C377,26.229 380.187,18.534 385.861,12.861C391.534,7.187 399.229,4 407.253,4L543.199,4L601,61.801ZM536.571,20L407.253,20C403.473,20 399.848,21.502 397.175,24.175C394.502,26.848 393,30.473 393,34.253L393,221.705C393,225.485 394.502,229.11 397.175,231.783C399.848,234.456 403.473,235.958 407.253,235.958L570.747,235.958C578.619,235.958 585,229.576 585,221.705L585,68.429L536.571,20Z" style="fill:rgb(55,137,95);"/>
        </g>
        <g transform="matrix(1.783776,0.059951,-0.127023,0.842795,-428.448161,107.385251)">
            <path d="M0,-3.525C0.36,0.618 4.017,3.704 8.139,3.34L12.828,3.106L19.752,9.153C19.91,9.291 20.109,9.363 20.312,9.363C20.439,9.363 20.566,9.334 20.687,9.275C20.993,9.124 21.181,8.803 21.159,8.461L20.788,2.383C24.51,1.642 27.165,-1.806 26.828,-5.671C26.468,-9.813 22.796,-12.888 18.665,-12.535L6.862,-11.695C2.719,-11.336 -0.36,-7.671 0,-3.525" style="fill:rgb(55,137,95);fill-rule:nonzero;"/>
        </g>
        <g transform="matrix(1.725159,0.080903,-0.181714,0.864066,-403.149079,124.390315)">
            <path d="M0,2.186C1.326,0.662 1.979,-1.281 1.841,-3.284C1.701,-5.287 0.786,-7.121 -0.739,-8.447C-2.263,-9.773 -4.203,-10.429 -6.222,-10.287L-17.998,-9.282C-22.145,-8.989 -25.282,-5.38 -24.995,-1.233C-24.727,2.638 -21.567,5.632 -17.776,5.784L-17.198,11.846C-17.166,12.187 -16.932,12.476 -16.604,12.577C-16.521,12.603 -16.437,12.615 -16.353,12.615C-16.105,12.615 -15.865,12.507 -15.701,12.311L-9.8,5.262L-5.163,4.766C-3.16,4.626 -1.326,3.711 0,2.186" style="fill:rgb(55,137,95);fill-rule:nonzero;"/>
        </g>
    </g>
</svg>
