<?xml version="1.0" encoding="UTF-8" standalone="no"?>
<!DOCTYPE svg PUBLIC "-//W3C//DTD SVG 1.1//EN" "http://www.w3.org/Graphics/SVG/1.1/DTD/svg11.dtd">
<svg width="100%" height="100%" viewBox="0 0 256 256" version="1.1" xmlns="http://www.w3.org/2000/svg" xmlns:xlink="http://www.w3.org/1999/xlink" xml:space="preserve" xmlns:serif="http://www.serif.com/" style="fill-rule:evenodd;clip-rule:evenodd;stroke-linejoin:round;stroke-miterlimit:2;">
    <g id="YarnScript-Icon" serif:id="YarnScript Icon" transform="matrix(2.37037,0,0,5.01961,1104.59,-446.745)">
        <rect x="-466" y="89" width="108" height="51" style="fill:none;"/>
        <g transform="matrix(0.421875,0,0,0.199219,-618.297,89)">
            <path d="M601,61.801L601,221.705C601,238.413 587.455,251.958 570.747,251.958L407.253,251.958C399.229,251.958 391.534,248.77 385.861,243.097C380.187,237.423 377,229.728 377,221.705L377,34.253C377,26.229 380.187,18.534 385.861,12.861C391.534,7.187 399.229,4 407.253,4L543.199,4L601,61.801Z" style="fill:white;"/>
            <path d="M601,61.801L601,221.705C601,238.413 587.455,251.958 570.747,251.958L407.253,251.958C399.229,251.958 391.534,248.77 385.861,243.097C380.187,237.423 377,229.728 377,221.705L377,34.253C377,26.229 380.187,18.534 385.861,12.861C391.534,7.187 399.229,4 407.253,4L543.199,4L601,61.801ZM536.571,20L407.253,20C403.473,20 399.848,21.502 397.175,24.175C394.502,26.848 393,30.473 393,34.253L393,221.705C393,225.485 394.502,229.11 397.175,231.783C399.848,234.456 403.473,235.958 407.253,235.958L570.747,235.958C578.619,235.958 585,229.576 585,221.705L585,68.429L536.571,20Z" style="fill:rgb(55,137,95);"/>
        </g>
        <g transform="matrix(0.421875,0,0,0.199219,-446.58651,112.278554)">
            <text x="97.864px" y="61.109px" style="font-family:'Helvetica';font-size:144px;fill:rgb(55,137,95);">?</text>
        </g>
        <g transform="matrix(0.275043,0,0,0.171387,-460.081934,108.342354)">
            <rect x="39" y="77" width="177" height="17" style="fill:rgb(55,137,95);"/>
        </g>
        <g transform="matrix(0.253591,0,0,0.171387,-459.245335,90.412674)">
            <rect x="39" y="77" width="177" height="17" style="fill:rgb(55,137,95);"/>
        </g>
        <g transform="matrix(0.198772,0,0,0.171387,-457.107358,99.377514)">
            <rect x="39" y="77" width="177" height="17" style="fill:rgb(55,137,95);"/>
        </g>
    </g>
</svg>
