<?xml version="1.0" encoding="UTF-8" standalone="no"?>
<!DOCTYPE svg PUBLIC "-//W3C//DTD SVG 1.1//EN" "http://www.w3.org/Graphics/SVG/1.1/DTD/svg11.dtd">
<svg width="100%" height="100%" viewBox="0 0 256 256" version="1.1" xmlns="http://www.w3.org/2000/svg" xmlns:xlink="http://www.w3.org/1999/xlink" xml:space="preserve" xmlns:serif="http://www.serif.com/" style="fill-rule:evenodd;clip-rule:evenodd;stroke-linejoin:round;stroke-miterlimit:2;">
    <g id="YarnScript-Icon" serif:id="YarnScript Icon" transform="matrix(2.37037,0,0,5.01961,1104.59,-446.745)">
        <rect x="-466" y="89" width="108" height="51" style="fill:none;"/>
        <g transform="matrix(0.421875,0,0,0.199219,-618.297,89)">
            <path d="M601,61.801L601,221.705C601,238.413 587.455,251.958 570.747,251.958C527.921,251.958 450.079,251.958 407.253,251.958C399.229,251.958 391.534,248.77 385.861,243.097C380.187,237.423 377,229.728 377,221.705L377,34.253C377,26.229 380.187,18.534 385.861,12.861C391.534,7.187 399.229,4 407.253,4L543.199,4L601,61.801Z" style="fill:white;"/>
            <path d="M601,61.801L601,221.705C601,238.413 587.455,251.958 570.747,251.958C527.921,251.958 450.079,251.958 407.253,251.958C399.229,251.958 391.534,248.77 385.861,243.097C380.187,237.423 377,229.728 377,221.705L377,34.253C377,26.229 380.187,18.534 385.861,12.861C391.534,7.187 399.229,4 407.253,4L543.199,4L601,61.801ZM536.571,20L407.253,20C403.473,20 399.848,21.502 397.175,24.175C394.502,26.848 393,30.473 393,34.253L393,221.705C393,225.485 394.502,229.11 397.175,231.783C399.848,234.456 403.473,235.958 407.253,235.958C450.079,235.958 527.921,235.958 570.747,235.958C578.619,235.958 585,229.576 585,221.705L585,68.429L536.571,20Z" style="fill:rgb(55,137,95);"/>
        </g>
        <g transform="matrix(1.19962,0,0,1.19962,88.0823,-23.2635)">
            <g transform="matrix(1.00077,0.0343155,-0.0726681,0.472587,-436.95,101.233)">
                <path d="M0,0.186L4.235,-4.916C4.453,-5.178 4.492,-5.545 4.337,-5.849C4.179,-6.152 3.846,-6.337 3.517,-6.306L-2.398,-5.855C-2.627,-5.838 -2.841,-5.728 -2.987,-5.55L-7.748,0.184C-8.041,0.537 -8.001,1.058 -7.658,1.362L-2.084,6.309C-1.928,6.447 -1.728,6.523 -1.52,6.523C-1.498,6.523 -1.477,6.522 -1.455,6.52L4.46,6.07C4.801,6.044 5.092,5.816 5.2,5.494C5.311,5.17 5.215,4.813 4.96,4.586L0,0.186Z" style="fill:rgb(55,137,95);fill-rule:nonzero;"/>
            </g>
            <g transform="matrix(1.00077,0.0343155,-0.0726681,0.472587,-423.379,98.2879)">
                <path d="M0,12.433C0.156,12.572 0.356,12.647 0.564,12.647C0.586,12.647 0.607,12.646 0.629,12.645L6.544,12.194C6.885,12.168 7.176,11.941 7.284,11.618C7.395,11.294 7.299,10.937 7.044,10.711L2.084,6.31L6.319,1.209C6.537,0.947 6.576,0.579 6.421,0.276C6.264,-0.028 5.939,-0.214 5.601,-0.181L-0.314,0.269C-0.543,0.287 -0.757,0.396 -0.903,0.574L-5.664,6.308C-5.957,6.661 -5.917,7.182 -5.574,7.487L0,12.433Z" style="fill:rgb(55,137,95);fill-rule:nonzero;"/>
            </g>
        </g>
        <g transform="matrix(1.20067,0.0403531,-0.0854536,0.566984,-413.177,110.494)">
            <path d="M0,-3.525C0.36,0.618 4.017,3.704 8.139,3.34L12.828,3.106L19.752,9.153C19.91,9.291 20.109,9.363 20.312,9.363C20.439,9.363 20.566,9.334 20.687,9.275C20.993,9.124 21.181,8.803 21.159,8.461L20.788,2.383C24.51,1.642 27.165,-1.806 26.828,-5.671C26.468,-9.813 22.796,-12.888 18.665,-12.535L6.862,-11.695C2.719,-11.336 -0.36,-7.671 0,-3.525" style="fill:rgb(55,137,95);fill-rule:nonzero;"/>
        </g>
        <g transform="matrix(1.19782,0.0561729,-0.118954,0.565636,-414.6,120.763)">
            <path d="M0,2.186C1.326,0.662 1.979,-1.281 1.841,-3.284C1.701,-5.287 0.786,-7.121 -0.739,-8.447C-2.263,-9.773 -4.203,-10.429 -6.222,-10.287L-17.998,-9.282C-22.145,-8.989 -25.282,-5.38 -24.995,-1.233C-24.727,2.638 -21.567,5.632 -17.776,5.784L-17.198,11.846C-17.166,12.187 -16.932,12.476 -16.604,12.577C-16.521,12.603 -16.437,12.615 -16.353,12.615C-16.105,12.615 -15.865,12.507 -15.701,12.311L-9.8,5.262L-5.163,4.766C-3.16,4.626 -1.326,3.711 0,2.186" style="fill:rgb(55,137,95);fill-rule:nonzero;"/>
        </g>
        <g transform="matrix(1.19962,0,0,1.19962,75.148,-23.2659)">
            <g transform="matrix(1.00119,0.0314563,-0.0666133,0.472786,-379.106,128.691)">
                <path d="M0,-2.493L-5.575,-7.44C-5.748,-7.593 -5.98,-7.671 -6.204,-7.652L-12.118,-7.2C-12.459,-7.175 -12.75,-6.947 -12.858,-6.624C-12.969,-6.301 -12.873,-5.944 -12.618,-5.717L-7.659,-1.317L-11.894,3.785C-12.111,4.048 -12.15,4.415 -11.995,4.718C-11.848,5.002 -11.556,5.178 -11.239,5.178C-11.218,5.178 -11.196,5.177 -11.175,5.175L-5.261,4.725C-5.031,4.707 -4.818,4.598 -4.671,4.42L0.09,-1.314C0.383,-1.667 0.343,-2.188 0,-2.493" style="fill:rgb(55,137,95);fill-rule:nonzero;"/>
            </g>
            <g transform="matrix(1.00119,0.0314563,-0.0666133,0.472786,-400.229,130.877)">
                <path d="M0,-12.387C-0.173,-12.540 -0.406,-12.618 -0.629,-12.598L-6.543,-12.148C-6.884,-12.122 -7.175,-11.895 -7.283,-11.572C-7.394,-11.248 -7.298,-10.891 -7.043,-10.664L-2.084,-6.263L-6.318,-1.162C-6.536,-0.899 -6.575,-0.532 -6.42,-0.229C-6.272,0.055 -5.98,0.231 -5.664,0.231C-5.643,0.231 -5.621,0.23 -5.6,0.229L0.314,-0.222C0.544,-0.24 0.757,-0.349 0.904,-0.527L5.665,-6.261C5.958,-6.614 5.918,-7.135 5.575,-7.44L0,-12.387Z" style="fill:rgb(55,137,95);fill-rule:nonzero;"/>
            </g>
        </g>
    </g>
</svg>
