<?xml version="1.0" encoding="UTF-8" standalone="no"?>
<!DOCTYPE svg PUBLIC "-//W3C//DTD SVG 1.1//EN" "http://www.w3.org/Graphics/SVG/1.1/DTD/svg11.dtd">
<svg width="100%" height="100%" viewBox="0 0 257 256" version="1.1" xmlns="http://www.w3.org/2000/svg" xmlns:xlink="http://www.w3.org/1999/xlink" xml:space="preserve" xmlns:serif="http://www.serif.com/" style="fill-rule:evenodd;clip-rule:evenodd;stroke-linejoin:round;stroke-miterlimit:2;">
    <g transform="matrix(1,0,0,1,-361,0)">
        <g id="YarnProgram-Icon" serif:id="YarnProgram Icon" transform="matrix(2.37037,0,0,5.01961,1466.29,-446.745)">
            <rect x="-466" y="89" width="108" height="51" style="fill:none;"/>
            <g transform="matrix(0.421875,0,0,0.199219,-618.297,89)">
                <path d="M601,61.801C601,61.801 601,168.046 601,221.705C601,238.413 587.455,251.958 570.747,251.958C527.921,251.958 450.079,251.958 407.253,251.958C399.229,251.958 391.534,248.77 385.861,243.097C380.187,237.423 377,229.728 377,221.705L377,34.253C377,26.229 380.187,18.534 385.861,12.861C391.534,7.187 399.229,4 407.253,4L543.199,4L601,61.801Z" style="fill:white;"/>
                <path d="M601,61.801C601,61.801 601,168.046 601,221.705C601,238.413 587.455,251.958 570.747,251.958C527.921,251.958 450.079,251.958 407.253,251.958C399.229,251.958 391.534,248.77 385.861,243.097C380.187,237.423 377,229.728 377,221.705L377,34.253C377,26.229 380.187,18.534 385.861,12.861C391.534,7.187 399.229,4 407.253,4L543.199,4L601,61.801ZM536.571,20L407.253,20C403.473,20 399.848,21.502 397.175,24.175C394.502,26.848 393,30.473 393,34.253L393,221.705C393,225.485 394.502,229.11 397.175,231.783C399.848,234.456 403.473,235.958 407.253,235.958C450.079,235.958 527.921,235.958 570.747,235.958C578.619,235.958 585,229.576 585,221.705L585,68.429L536.571,20Z" style="fill:rgb(55,137,95);"/>
            </g>
            <g transform="matrix(0.421875,0,0,0.199219,-466,15.1824)">
                <path d="M143.593,432.264C142.997,429.879 141.023,428.088 138.592,427.724C131.564,426.753 124.436,426.753 117.411,427.741C114.986,428.104 113.018,429.89 112.423,432.268C111.319,436.612 109.57,443.601 108.584,447.543C108.126,449.372 106.846,450.885 105.118,451.639C101.531,453.223 98.126,455.189 94.954,457.493C93.44,458.61 91.493,458.961 89.684,458.444C85.773,457.34 78.847,455.36 74.537,454.128C72.174,453.452 69.636,454.265 68.105,456.189C63.75,461.79 60.186,467.963 57.529,474.541C56.631,476.822 57.194,479.42 58.956,481.124C62.166,484.252 67.344,489.261 70.265,492.086C71.62,493.397 72.29,495.262 72.079,497.136C71.658,501.034 71.658,504.966 72.067,508.865C72.277,510.735 71.607,512.596 70.255,513.904C67.344,516.739 62.166,521.748 58.944,524.864C57.177,526.573 56.612,529.178 57.513,531.465C60.186,538.037 63.75,544.21 68.119,549.8C69.645,551.719 72.176,552.53 74.533,551.856C78.847,550.64 85.773,548.66 89.68,547.543C91.493,547.025 93.444,547.377 94.961,548.497C98.126,550.811 101.531,552.777 105.113,554.372C106.837,555.125 108.114,556.636 108.571,558.461C109.57,562.399 111.319,569.388 112.407,573.736C113.003,576.121 114.977,577.912 117.408,578.276C124.436,579.247 131.564,579.247 138.589,578.259C141.014,577.896 142.982,576.11 143.577,573.732C144.681,569.388 146.43,562.399 147.416,558.457C147.874,556.628 149.154,555.115 150.882,554.361C154.469,552.777 157.874,550.811 161.046,548.507C162.56,547.39 164.507,547.039 166.316,547.556C170.227,548.66 177.153,550.64 181.463,551.872C183.826,552.548 186.364,551.735 187.895,549.811C192.25,544.21 195.814,538.037 198.471,531.459C199.369,529.178 198.806,526.58 197.044,524.876C193.834,521.748 188.656,516.739 185.735,513.914C184.38,512.603 183.71,510.738 183.921,508.864C184.342,504.966 184.342,501.034 183.933,497.135C183.723,495.265 184.393,493.404 185.745,492.096C188.656,489.261 193.834,484.252 197.056,481.136C198.823,479.427 199.388,476.822 198.487,474.535C195.814,467.963 192.25,461.79 187.881,456.2C186.355,454.281 183.824,453.47 181.467,454.144C177.153,455.36 170.227,457.34 166.32,458.457C164.507,458.975 162.556,458.623 161.039,457.503C157.874,455.189 154.469,453.223 150.887,451.628C149.163,450.875 147.886,449.364 147.429,447.539C146.43,443.601 144.681,436.612 143.593,432.264ZM128,474.88C143.52,474.88 156.12,487.48 156.12,503C156.12,518.52 143.52,531.12 128,531.12C112.48,531.12 99.88,518.52 99.88,503C99.88,487.48 112.48,474.88 128,474.88Z" style="fill:rgb(161,188,149);"/>
            </g>
        </g>
    </g>
</svg>
